<svg width="159px" height="159px" viewBox="-1.76 -1.76 19.52 19.52" xmlns="http://www.w3.org/2000/svg" fill="#ffffff" class="bi bi-images" stroke="#ffffff" stroke-width="0.00016"><g id="SVGRepo_bgCarrier" stroke-width="0"></g><g id="SVGRepo_tracerCarrier" stroke-linecap="round" stroke-linejoin="round"></g><g id="SVGRepo_iconCarrier"> <path d="M4.502 9a1.5 1.5 0 1 0 0-3 1.5 1.5 0 0 0 0 3z"></path> <path d="M14.002 13a2 2 0 0 1-2 2h-10a2 2 0 0 1-2-2V5A2 2 0 0 1 2 3a2 2 0 0 1 2-2h10a2 2 0 0 1 2 2v8a2 2 0 0 1-1.998 2zM14 2H4a1 1 0 0 0-1 1h9.002a2 2 0 0 1 2 2v7A1 1 0 0 0 15 11V3a1 1 0 0 0-1-1zM2.002 4a1 1 0 0 0-1 1v8l2.646-2.354a.5.5 0 0 1 .63-.062l2.66 1.773 3.71-3.71a.5.5 0 0 1 .577-.094l1.777 1.947V5a1 1 0 0 0-1-1h-10z"></path> </g></svg>