<?xml version="1.0" encoding="iso-8859-1"?>
<!-- Uploaded to: SVG Repo, www.svgrepo.com, Generator: SVG Repo Mixer Tools -->
<svg fill="#000000" height="800px" width="800px" version="1.1" id="Layer_1" xmlns="http://www.w3.org/2000/svg" xmlns:xlink="http://www.w3.org/1999/xlink" 
	 viewBox="0 0 485 485" xml:space="preserve">
<g>
	<circle cx="80.414" cy="238.15" r="0.527"/>
	<path d="M95.94,238.15c0-8.562-6.965-15.527-15.527-15.527s-15.526,6.965-15.526,15.527s6.965,15.526,15.526,15.526
		S95.94,246.711,95.94,238.15z"/>
	<circle cx="255.139" cy="85.889" r="0.527"/>
	<path d="M255.139,101.416c8.562,0,15.527-6.965,15.527-15.527s-6.965-15.526-15.527-15.526c-8.561,0-15.526,6.965-15.526,15.526
		S246.578,101.416,255.139,101.416z"/>
	<circle cx="404.586" cy="350.387" r="0.527"/>
	<path d="M404.586,334.86c-8.561,0-15.526,6.965-15.526,15.526c0,8.562,6.965,15.527,15.526,15.527
		c8.562,0,15.527-6.965,15.527-15.527C420.113,341.826,413.147,334.86,404.586,334.86z"/>
	<path d="M443.142,279.841c0.678-6.55,1.022-13.159,1.022-19.753c0-38.629-11.551-75.798-33.403-107.488
		c-19.154-27.776-45.018-49.719-75.266-63.984c0.031-0.908,0.058-1.817,0.058-2.727c0-44.34-36.074-80.414-80.414-80.414
		s-80.414,36.073-80.414,80.414c0,0.75,0.027,1.497,0.048,2.245c-32.999,15.349-61.02,40.002-80.498,70.822
		c-4.507-0.787-9.133-1.22-13.862-1.22C36.073,157.736,0,193.809,0,238.149c0,18,6.151,35.69,17.346,49.844l63.068,79.293
		l9.95-12.51c33.571,58.264,95.871,94.862,164.249,94.862c36.746,0,71.846-10.329,102.355-29.985l47.619,59.87l63.094-79.326
		c11.169-14.123,17.32-31.813,17.32-49.812C485,320.009,468.064,293.517,443.142,279.841z M255.139,35.476
		c27.798,0,50.414,22.615,50.414,50.414c0,11.437-3.752,22.226-10.825,31.169l-39.589,49.774l-39.563-49.742
		c-7.099-8.975-10.851-19.765-10.851-31.202C204.725,58.091,227.34,35.476,255.139,35.476z M30,238.149
		c0-27.798,22.615-50.414,50.414-50.414s50.414,22.615,50.414,50.414c0,11.437-3.752,22.226-10.825,31.169l-39.589,49.774
		l-39.563-49.742C33.752,260.376,30,249.586,30,238.149z M110.748,329.149l32.76-41.188c11.169-14.123,17.32-31.813,17.32-49.812
		c0-28.728-15.153-53.971-37.877-68.196c14.964-21.814,35.14-39.626,58.599-51.736c2.738,6.231,6.262,12.131,10.521,17.516
		l63.068,79.293l63.094-79.326c4.151-5.249,7.606-10.993,10.313-17.06c52.496,27.333,85.618,81.246,85.618,141.447
		c0,3.479-0.117,6.961-0.341,10.432c-3.033-0.349-6.111-0.547-9.236-0.547c-44.34,0-80.414,36.073-80.414,80.414
		c0,16.22,5.01,32.18,14.189,45.536c-25.107,15.554-53.775,23.716-83.749,23.716C192.998,419.639,137.25,384.335,110.748,329.149z
		 M444.175,381.556l-39.589,49.774l-39.563-49.742c-7.098-8.975-10.85-19.764-10.85-31.201c0-27.798,22.615-50.414,50.414-50.414
		S455,322.588,455,350.387C455,361.824,451.248,372.613,444.175,381.556z"/>
</g>
</svg>